<svg width="38" height="34" viewBox="0 0 38 34" fill="none" xmlns="http://www.w3.org/2000/svg">
<path d="M9.1961 7.75099L9.9526 4.41198C10.1067 3.73165 10.5233 3.11948 11.1315 2.67969C11.7396 2.23991 12.5017 1.99971 13.288 1.99998H24.712C25.4983 1.99971 26.2604 2.23991 26.8685 2.67969C27.4767 3.11948 27.8933 3.73165 28.0474 4.41198L28.8039 7.75099C28.9226 8.27417 29.2073 8.75687 29.6247 9.14296C30.0421 9.52905 30.5751 9.80266 31.1618 9.93198C32.5439 10.2371 33.7708 10.941 34.6474 11.9319C35.524 12.9229 36.0001 14.1439 36 15.401V26C36 27.5913 35.2836 29.1174 34.0083 30.2426C32.7331 31.3678 31.0035 32 29.2 32H8.8C6.99653 32 5.26692 31.3678 3.99167 30.2426C2.71643 29.1174 2 27.5913 2 26V15.401C1.99987 14.1439 2.47596 12.9229 3.35259 11.9319C4.22923 10.941 5.4561 10.2371 6.8382 9.93198C7.42489 9.80266 7.95793 9.52905 8.37533 9.14296C8.79273 8.75687 9.07735 8.27417 9.1961 7.75099V7.75099Z" stroke="white" stroke-width="3" stroke-linecap="round" stroke-linejoin="round"/>
<path d="M19.0002 25.426C22.7557 25.426 25.8002 22.7397 25.8002 19.426C25.8002 16.1123 22.7557 13.426 19.0002 13.426C15.2447 13.426 12.2002 16.1123 12.2002 19.426C12.2002 22.7397 15.2447 25.426 19.0002 25.426Z" stroke="white" stroke-width="3" stroke-linecap="round" stroke-linejoin="round"/>
<path d="M17.2998 7.42604H20.6998" stroke="white" stroke-width="3" stroke-linecap="round" stroke-linejoin="round"/>
</svg>
