<svg width="13" height="13" viewBox="0 0 13 13" fill="none" xmlns="http://www.w3.org/2000/svg">
<path d="M0.875 2.125V10.0938C0.875 10.6325 1.08901 11.1491 1.46994 11.5301C1.85087 11.911 2.36753 12.125 2.90625 12.125H10.4062C10.945 12.125 11.4616 11.911 11.8426 11.5301C12.2235 11.1491 12.4375 10.6325 12.4375 10.0938V4.78125C12.4375 4.32399 12.2832 3.88009 11.9997 3.52135C11.7162 3.16262 11.3199 2.91001 10.875 2.80437V2.28125C10.875 2.09658 10.8386 1.91372 10.768 1.7431C10.6973 1.57249 10.5937 1.41746 10.4631 1.28688C10.3325 1.1563 10.1775 1.05272 10.0069 0.982044C9.83628 0.911374 9.65342 0.875 9.46875 0.875H2.28125C1.93535 0.87501 1.60159 1.0025 1.34378 1.23311C1.08596 1.46371 0.922183 1.78124 0.88375 2.125H0.875ZM2.28125 2.75C2.15693 2.75 2.0377 2.70061 1.94979 2.61271C1.86189 2.5248 1.8125 2.40557 1.8125 2.28125C1.8125 2.15693 1.86189 2.0377 1.94979 1.94979C2.0377 1.86189 2.15693 1.8125 2.28125 1.8125H9.46875C9.59307 1.8125 9.7123 1.86189 9.80021 1.94979C9.88811 2.0377 9.9375 2.15693 9.9375 2.28125V2.75H2.28125ZM9.15625 7.125H10.4062C10.5306 7.125 10.6498 7.17439 10.7377 7.26229C10.8256 7.3502 10.875 7.46943 10.875 7.59375C10.875 7.71807 10.8256 7.8373 10.7377 7.92521C10.6498 8.01311 10.5306 8.0625 10.4062 8.0625H9.15625C9.03193 8.0625 8.9127 8.01311 8.82479 7.92521C8.73689 7.8373 8.6875 7.71807 8.6875 7.59375C8.6875 7.46943 8.73689 7.3502 8.82479 7.26229C8.9127 7.17439 9.03193 7.125 9.15625 7.125Z" fill="black"/>
</svg>
